<svg id="Layer_1" data-name="Layer 1" xmlns="http://www.w3.org/2000/svg" viewBox="0 0 360 83.17"><defs><style>.cls-1{fill:#fff;}</style></defs><path class="cls-1" d="M21.77,7.36h5.89L33.5,23.2,47.85,7.36H54.5l-9,33.49H39.62l6.46-24L31.34,32.62h-.19L25,16.93,18.57,40.85H12.78Z"/><path class="cls-1" d="M90.09,21.47a20.27,20.27,0,0,1-6,14.17,19.32,19.32,0,0,1-13.92,5.78c-9,0-15-6.36-15-14.68a20.19,20.19,0,0,1,6-14.17A19.22,19.22,0,0,1,75,6.79C84.07,6.79,90.09,13.15,90.09,21.47ZM79.62,32.24A15.24,15.24,0,0,0,84,21.81c0-5.5-3.54-9.62-9.52-9.62A12.42,12.42,0,0,0,65.65,16,15.21,15.21,0,0,0,61.29,26.4C61.29,32,64.83,36,70.81,36A12.44,12.44,0,0,0,79.62,32.24Z"/><path class="cls-1" d="M102.87,12.81H92.2l1.48-5.45h27.18l-1.49,5.45H108.75l-7.56,28H95.31Z"/><path class="cls-1" d="M125.16,7.36h5.93l-9,33.49h-5.93Z"/><path class="cls-1" d="M167,21.47a20.28,20.28,0,0,1-6,14.17,19.32,19.32,0,0,1-13.92,5.78c-9,0-15-6.36-15-14.68a20.19,20.19,0,0,1,6-14.17,19.22,19.22,0,0,1,13.88-5.78C161,6.79,167,13.15,167,21.47ZM156.5,32.24a15.24,15.24,0,0,0,4.35-10.43c0-5.5-3.54-9.62-9.52-9.62a12.43,12.43,0,0,0-8.8,3.78,15.21,15.21,0,0,0-4.36,10.43c0,5.55,3.54,9.62,9.52,9.62A12.44,12.44,0,0,0,156.5,32.24Z"/><path class="cls-1" d="M176.64,7.36h5.46L193.43,31l6.42-23.68h5.78l-9,33.49h-4.93L180,16.5l-6.51,24.35h-5.83Z"/><path class="cls-1" d="M12.31,42.91H27.24c4.21,0,7.51,1.25,9.67,3.35a10.14,10.14,0,0,1,2.77,7.23v.09c0,5.5-3.3,8.8-7.94,10.14l9,12.68h-7L25.57,64.73H18.2V76.4H12.31Zm14.5,16.61c4.21,0,6.89-2.21,6.89-5.6v-.1c0-3.59-2.58-5.55-6.94-5.55H18.2V59.52Z"/><path class="cls-1" d="M45.23,42.91H70.06v5.27h-19v8.7h16.8v5.31H51.11v9H70.3V76.4H45.23Z"/><path class="cls-1" d="M74.13,59.75v-.09A16.93,16.93,0,0,1,91.35,42.34a17.51,17.51,0,0,1,13.16,5.21l-3.78,4.36c-2.73-2.49-5.55-4.12-9.43-4.12-6.31,0-11,5.22-11,11.77v.1c0,6.55,4.64,11.86,11,11.86,4.12,0,6.75-1.62,9.62-4.3l3.78,3.83C101.26,74.68,97.43,77,91.16,77A16.81,16.81,0,0,1,74.13,59.75Z"/><path class="cls-1" d="M109.29,42.91h14.93c4.21,0,7.51,1.25,9.66,3.35a10.14,10.14,0,0,1,2.78,7.23v.09c0,5.5-3.3,8.8-7.95,10.14l9,12.68h-7l-8.23-11.67h-7.37V76.4h-5.88Zm14.5,16.61c4.21,0,6.89-2.21,6.89-5.6v-.1c0-3.59-2.59-5.55-6.94-5.55h-8.57V59.52Z"/><path class="cls-1" d="M141.68,62.19V42.91h5.89V62c0,6.22,3.2,9.53,8.46,9.53s8.43-3.12,8.43-9.29V42.91h5.88v19c0,10-5.64,15-14.4,15S141.68,71.9,141.68,62.19Z"/><path class="cls-1" d="M177.09,42.91H183V76.4h-5.88Z"/><path class="cls-1" d="M198.42,48.37H187.75V42.91H215v5.46H204.31v28h-5.89Z"/><path class="cls-1" d="M219.42,42.91h6.27l10.19,15.84,10.19-15.84h6.27V76.4h-5.89v-24L235.88,68.17h-.19L225.21,52.48V76.4h-5.79Z"/><path class="cls-1" d="M259.28,42.91h24.83v5.27H265.16v8.7H282v5.31h-16.8v9h19.19V76.4H259.28Z"/><path class="cls-1" d="M289.66,42.91h5.45l17.94,23.16V42.91h5.79V76.4h-4.93L295.44,52.58V76.4h-5.78Z"/><path class="cls-1" d="M334,48.37H323.29V42.91h27.22v5.46H339.84v28H334Z"/></svg>